PathFileType	4	(X/Y/Z)	Patient4_TMGait_0pt7_02_right_18.trc.trc
DataRate	CameraRate	NumFrames	NumMarkers	Units	OrigDataRate	OrigDataStartFrame	OrigNumFrames
85.889570552147	85.889570552147	4	33	mm	85.889570552147	53	       141
Frame#	Time	Sacral			L.Shoulder			Chest			R.Shoulder			Neck			R.ASIS			L.ASIS			R.Thigh.Superior			R.Thigh.Lateral			R.Thigh.Inferior			R.Patella			L.Thigh.Superior			L.Thigh.Lateral			L.Thigh.Inferior			L.Patella			L.Shank.Superior			L.Shank.Lateral			L.Shank.Inferior			R.Shank.Superior			R.Shank.Lateral			R.Shank.Inferior			R.Heel			R.Midfoot.Superior			R.Midfoot.Lateral			R.Toe			L.Heel			L.Midfoot.Lateral			L.Midfoot.Superior			L.Toe			L.Elbow			L.Wrist			R.Elbow			R.Wrist			
		X1	Y1	Z1	X2	Y2	Z2	X3	Y3	Z3	X4	Y4	Z4	X5	Y5	Z5	X6	Y6	Z6	X7	Y7	Z7	X8	Y8	Z8	X9	Y9	Z9	X10	Y10	Z10	X11	Y11	Z11	X12	Y12	Z12	X13	Y13	Z13	X14	Y14	Z14	X15	Y15	Z15	X16	Y16	Z16	X17	Y17	Z17	X18	Y18	Z18	X19	Y19	Z19	X20	Y20	Z20	X21	Y21	Z21	X22	Y22	Z22	X23	Y23	Z23	X24	Y24	Z24	X25	Y25	Z25	X26	Y26	Z26	X27	Y27	Z27	X28	Y28	Z28	X29	Y29	Z29	X30	Y30	Z30	X31	Y31	Z31	X32	Y32	Z32	X33	Y33	Z33	

53	20.375428571429	823.701953546749	1021.249546202104	532.261256821876	1023.421121773412	1420.149322540399	312.857383498283	1141.376419806986	1342.817292364299	461.007897498602	1096.532340535491	1434.793331476516	640.314264343408	1058.534923377404	1486.567121354803	461.642176028337	1055.936338939487	939.492706877336	624.456832040066	1012.982544079525	961.038994227204	353.797788635825	1090.274241031962	741.495672758733	595.726759110442	1005.935178380916	637.296803483109	658.711983608381	1076.642176784359	582.711031021352	576.336520576530	1073.387429286488	492.661094874769	583.101458516164	1107.542671463528	801.728971289981	383.084682738441	1077.200604877613	674.479739486172	300.292938116304	1188.973409317409	622.893889946214	359.929939601441	1214.717810281904	538.004062680708	349.677945100964	1162.156861177327	463.617094467774	338.626175302304	1033.434853057847	390.571279814931	292.627288317958	1057.665997106143	259.271602854472	338.267590031591	1042.732769868310	405.020071824736	590.005507650055	967.075296734072	303.545825614066	649.649338663730	1006.894674776096	207.453305060537	585.866968150172	866.240849888997	45.271958656597	554.953751620171	1038.796622624996	97.817206352631	591.932594237113	948.961862238303	37.948272273111	628.683594279270	1157.531655142977	39.845868106719	620.146414764260	894.174335870117	146.927571117744	379.553563649897	955.524960882046	121.943864253170	293.280313913008	1056.511381736540	153.609278133325	310.847654917536	1156.218489672382	65.783401120533	269.968073794221	938.641052052015	1068.419032517727	232.588373508271	992.791955577243	813.670913255087	226.062993961072	1099.051064832984	1092.421346606548	778.742339593537	1314.382767253327	964.718465477399	717.730021481210	
54	20.387071428571	822.021009589101	1021.747301241805	532.867425723801	1022.060511313380	1419.795104426527	312.552612894952	1140.324899443565	1342.650120022290	460.484070108141	1096.099942226865	1434.909396844081	639.841066556022	1057.593611792879	1486.468737942823	461.157337371330	1054.355721201131	939.237216136094	624.168443873976	1010.790018867086	961.552267150896	353.561607110979	1086.673400833461	740.597192303169	594.654811151660	1001.992063823916	637.159647998751	658.542317394628	1071.477919798133	581.919850604585	575.748290134787	1067.414188802230	491.978801282049	582.695414596906	1106.216452375721	804.397951043352	382.981927359758	1077.928972779588	676.715365348360	299.951029467460	1190.112383894768	626.876902293477	360.173716386169	1217.904977783810	543.434862733573	349.761218988210	1168.930194177534	467.952240356148	338.285278421525	1044.836710397009	387.960439638386	291.517225165245	1076.572675288729	257.741730416200	336.864126236674	1036.373184501646	404.454606105246	589.738047677394	960.308370868870	303.386358416875	649.508189647928	999.450575936309	207.079700109425	585.700627929576	858.056599709082	45.222301503765	555.002575010284	1030.535261896479	97.708559525573	591.837800809466	940.767291635282	37.932081016804	628.757112957779	1149.317465699525	39.808133025182	620.251894078534	919.836955453076	135.500692660530	377.393018065923	982.940119238412	114.640923370208	291.260232935180	1081.835072806595	152.188925912594	309.220438497238	1186.857371764566	70.613801768140	268.568387383033	933.009408759660	1068.539698262902	234.541032013135	971.459899198030	811.089594363898	228.427654326692	1109.545680951997	1092.851193018557	776.435688021636	1333.697096359747	986.506141801883	709.247960193156	
55	20.398714285714	820.368694399753	1022.254468497524	533.213358869395	1020.744870238629	1419.524716014585	312.175592468951	1139.317728378343	1342.435686789804	459.812156924135	1095.798652159683	1434.930948690453	639.256294342623	1056.721054592010	1486.362378743034	460.621418870415	1052.706284633143	938.945667511831	623.704554452769	1008.678340160400	961.998077326017	353.131347082338	1082.918535778917	739.627585345137	593.517674197994	997.864319711297	636.972346014015	658.285203583488	1066.149214512605	581.065302703401	575.083869938682	1061.250972265898	491.329605895071	582.201119709227	1104.617225585536	806.716444257068	382.911911164466	1078.362213784624	678.677414893697	299.562147200038	1190.678326932393	630.387000214121	360.603157537064	1220.432274096757	548.485831791382	350.141313408599	1175.066844841758	472.092639591565	338.248263408156	1056.239895041550	385.497385230516	290.038563187590	1094.930609451539	256.786424059050	335.538800607440	1029.862490061792	403.921477008394	589.390312331539	953.468804847710	303.248747762910	649.345096020805	991.940548686888	206.742405194899	585.507697648512	849.853096102035	45.186399430259	555.054476108785	1022.260800303376	97.587953296792	591.730231675286	932.565633111451	37.913540893209	628.832514107523	1141.099852366199	39.781362141521	620.336375700925	945.137883361166	125.312210095085	374.426821896327	1010.289101198112	108.436371487577	288.961980058668	1106.642223666456	151.604315802689	307.917453128352	1216.698539316529	76.320679186137	268.430752660840	926.865069447747	1069.063966147453	236.123122012437	951.122585679175	810.086044429605	230.786860550462	1120.394832047910	1093.623498238215	773.718644770524	1351.161237411478	1009.283233991448	700.432251724841	
56	20.410357142857	818.768327701548	1022.761822352930	533.280694633402	1019.481867204984	1419.347275334091	311.722816385522	1138.354382287410	1342.174468854973	458.989774825820	1095.631956060164	1434.863681468464	638.549303528609	1055.925834831790	1486.251788351422	460.033617395235	1051.002591793200	938.634536986167	623.073144029248	1006.676279807668	962.379061953034	352.504178208294	1079.036962083088	738.590947906963	592.379182876856	993.510380371421	636.742268584730	657.939118483001	1060.644550445480	580.146669038925	574.372778330289	1054.881298135870	490.719652930648	581.627492381325	1102.798138869084	808.696101796737	382.904133568426	1078.569402752180	680.385489732146	299.127764405992	1190.764248611766	633.437684191633	361.183901242803	1222.379315644554	553.131772853973	350.801094978319	1180.576978859187	476.002647628284	338.511653354422	1067.544514995146	383.277888610678	288.234241843144	1112.497640852561	256.434342574452	334.340571569606	1023.185017657344	403.424769960355	588.963699668848	946.535869250977	303.137099852334	649.154729338490	984.355888797421	206.445868668372	585.287444115035	841.629829258848	45.160203991255	555.107733995906	1013.971452380295	97.458842246546	591.609299315203	924.353779158795	37.892483299519	628.905133360557	1132.876838309128	39.770750449747	620.399594645647	969.679286892849	116.522415237754	370.746815400163	1037.156197570779	103.442641134587	286.473829466017	1130.577958225480	151.873732886614	306.992721439295	1245.318721213383	82.811693666914	269.601875997868	920.228427533494	1070.014643221333	237.330662495683	931.963256388700	810.413203003776	233.121661754993	1131.544921002656	1094.781920917675	770.615498519171	1366.659395232091	1032.747306358328	691.415294393161	
